<?xml version="1.0" encoding="UTF-8"?>
<svg width="164px" height="42px" viewBox="0 0 164 42" version="1.1" xmlns="http://www.w3.org/2000/svg" xmlns:xlink="http://www.w3.org/1999/xlink">
    <!-- Generator: Sketch 51.3 (57544) - http://www.bohemiancoding.com/sketch -->
    <title>logo</title>
    <desc>Created with Sketch.</desc>
    <defs></defs>
    <g id="Page-1" stroke="none" stroke-width="1" fill="none" fill-rule="evenodd">
        <g id="logo" transform="translate(1.000000, 1.000000)">
            <path d="M49,24.5232 L49,11.9568 L51.9568,9 L60.2464,9 L63.0976,11.8512 L63.0976,13.9368 L60.5632,13.9368 L60.5632,12.7488 L59.032,11.2176 L53.1712,11.2176 L51.5344,12.8544 L51.5344,23.6256 L53.1712,25.2624 L59.032,25.2624 L60.5632,23.7312 L60.5632,22.5432 L63.0976,22.5432 L63.0976,24.6288 L60.2464,27.48 L51.9568,27.48 L49,24.5232 Z M66.1336,9 L78.5416,9 L78.5416,11.2176 L68.668,11.2176 L68.668,17.1048 L77.776,17.1048 L77.776,19.296 L68.668,19.296 L68.668,25.2624 L78.5416,25.2624 L78.5416,27.48 L66.1336,27.48 L66.1336,9 Z M95.2792,21.672 L95.2792,27.48 L92.7448,27.48 L92.7448,22.3056 L90.5536,19.956 L84.244,19.956 L84.244,27.48 L81.7096,27.48 L81.7096,9 L92.6128,9 L95.1736,11.5608 L95.1736,17.316 L93.1408,19.3488 L95.2792,21.672 Z M84.244,17.7912 L91.4776,17.7912 L92.6656,16.6296 L92.6656,12.3264 L91.4776,11.1648 L84.244,11.1648 L84.244,17.7912 Z M102.9616,11.1912 L97.3912,11.1912 L97.3912,9 L111.0664,9 L111.0664,11.1912 L105.496,11.1912 L105.496,27.48 L102.9616,27.48 L102.9616,11.1912 Z M113.0464,24.5232 L113.0464,11.9568 L116.0032,9 L124.7152,9 L127.672,11.9568 L127.672,24.5232 L124.7152,27.48 L116.0032,27.48 L113.0464,24.5232 Z M123.5008,25.2624 L125.1376,23.6256 L125.1376,12.8544 L123.5008,11.2176 L117.2176,11.2176 L115.5808,12.8544 L115.5808,23.6256 L117.2176,25.2624 L123.5008,25.2624 Z M144.9376,21.672 L144.9376,27.48 L142.4032,27.48 L142.4032,22.3056 L140.212,19.956 L133.9024,19.956 L133.9024,27.48 L131.368,27.48 L131.368,9 L142.2712,9 L144.832,11.5608 L144.832,17.316 L142.7992,19.3488 L144.9376,21.672 Z M133.9024,17.7912 L141.136,17.7912 L142.324,16.6296 L142.324,12.3264 L141.136,11.1648 L133.9024,11.1648 L133.9024,17.7912 Z M153.808,9 L156.3424,9 L162.9952,27.48 L160.3816,27.48 L158.7448,22.7808 L151.432,22.7808 L149.7952,27.48 L147.1816,27.48 L153.808,9 Z M158.0848,20.6424 L155.1016,12.0096 L155.0488,12.0096 L152.1184,20.6424 L158.0848,20.6424 Z" id="Certora" fill="#2D505F"></path>
            <g id="Group" fill-rule="nonzero">
                <g id="Group-4">
                    <polygon id="Polygon-Copy" stroke="#2D505F" stroke-width="1.44" fill="#79F2A5" points="34.1431578 0.482926829 34.1431578 29.9414634 17.4 39.6 0.656842194 29.9414634 0.656842194 0.482926829"></polygon>
                    <polygon id="Polygon" stroke="#2D505F" stroke-width="1.44" fill="#3399D6" points="17.4 0.965853659 34.1431578 10.6243902 34.1431578 29.9414634 17.4 39.6 0.656842194 29.9414634 0.656842194 10.6243902"></polygon>
                    <polygon id="Polygon-Copy-2" fill="#40DCFF" points="17.4 0.965853659 34.1431578 29.9414634 17.4 39.6 0.656842194 29.9414634"></polygon>
                    <path d="M1.06902174,10.806359 L33.8890013,29.8577965" id="Path-3" stroke="#2D505F" stroke-width="1.44"></path>
                    <path d="M1.06902174,10.806359 L33.8890013,29.8577965" id="Path-3-Copy" stroke="#2D505F" stroke-width="1.44" transform="translate(17.479012, 20.332078) scale(-1, 1) translate(-17.479012, -20.332078) "></path>
                    <path d="M17.4790115,1.38294602 L17.4790115,39.059282" id="Path-3-Copy-2" stroke="#2D505F" stroke-width="1.44" transform="translate(17.479012, 20.221114) scale(-1, 1) translate(-17.479012, -20.221114) "></path>
                    <path d="M1.00243797,1.15599311 L17.4099094,29.7698527" id="Path-3-Copy-3" stroke="#2D505F" stroke-width="1.44" transform="translate(9.206174, 15.462923) scale(-1, 1) translate(-9.206174, -15.462923) "></path>
                    <path d="M17.3476659,0.945219288 L33.9123449,29.7698527" id="Path-3-Copy-4" stroke="#2D505F" stroke-width="1.44"></path>
                    <polygon id="Polygon-Copy-3" stroke="#2D505F" stroke-width="1.44" points="17.4 0.965853659 34.1431578 10.6243902 34.1431578 29.9414634 17.4 39.6 0.656842194 29.9414634 0.656842194 10.6243902"></polygon>
                </g>
            </g>
        </g>
    </g>
</svg>